<svg width="24" height="24" viewBox="0 0 24 24" fill="none" xmlns="http://www.w3.org/2000/svg">
<g id="2 - Regular / user">
<path d="M0 8C0 3.58172 3.58172 0 8 0H16C20.4183 0 24 3.58172 24 8V16C24 20.4183 20.4183 24 16 24H8C3.58172 24 0 20.4183 0 16V8Z" fill="#F4F4F4"/>
<path id="user-Regular" d="M11.999 12.75C14.894 12.75 17.249 10.395 17.249 7.5C17.249 4.605 14.894 2.25 11.999 2.25C9.10396 2.25 6.74896 4.605 6.74896 7.5C6.74896 10.395 9.10396 12.75 11.999 12.75ZM11.999 3.75C14.067 3.75 15.749 5.432 15.749 7.5C15.749 9.568 14.067 11.25 11.999 11.25C9.93096 11.25 8.24896 9.568 8.24896 7.5C8.24896 5.432 9.93096 3.75 11.999 3.75ZM19.749 17.967V18.978C19.749 19.913 19.408 20.809 18.788 21.5C18.64 21.666 18.4349 21.75 18.2289 21.75C18.0509 21.75 17.8719 21.687 17.7289 21.559C17.4199 21.283 17.395 20.809 17.671 20.5C18.044 20.083 18.2499 19.543 18.2499 18.979V17.968C18.2499 16.454 17.2459 15.144 15.8069 14.783C15.5539 14.719 15.282 14.754 15.061 14.879C13.16 15.937 10.8339 15.933 8.94495 14.882C8.71895 14.753 8.44697 14.716 8.19397 14.782C6.75497 15.144 5.74994 16.454 5.74994 17.968V18.979C5.74994 19.544 5.95598 20.084 6.32898 20.5C6.60498 20.809 6.57894 21.283 6.27094 21.559C5.96094 21.836 5.48698 21.809 5.21198 21.501C4.59198 20.809 4.25098 19.913 4.25098 18.979V17.968C4.25098 15.766 5.72194 13.858 7.82794 13.328C8.45094 13.17 9.12795 13.26 9.68195 13.576C11.1119 14.372 12.884 14.375 14.326 13.573C14.873 13.261 15.55 13.172 16.175 13.329C18.278 13.856 19.749 15.764 19.749 17.967Z" fill="#171717"/>
</g>
</svg>
