<svg width="20" height="20" viewBox="0 0 20 20" fill="none" xmlns="http://www.w3.org/2000/svg">
<g id="oui:arrow-up">
<path id="Vector" d="M13.5533 16.3366L7.78956 10.4803C7.66315 10.3525 7.59224 10.18 7.59224 10.0003C7.59224 9.82056 7.66315 9.64808 7.78956 9.5203L13.5521 3.66405C13.6784 3.53548 13.7492 3.36243 13.7492 3.18218C13.7492 3.00192 13.6784 2.82887 13.5521 2.7003C13.4903 2.63699 13.4166 2.58667 13.3351 2.55232C13.2536 2.51797 13.1661 2.50027 13.0777 2.50027C12.9893 2.50027 12.9017 2.51797 12.8203 2.55232C12.7388 2.58667 12.665 2.63699 12.6033 2.7003L6.84081 8.5553C6.46215 8.94095 6.25 9.45983 6.25 10.0003C6.25 10.5408 6.46215 11.0596 6.84081 11.4453L12.6033 17.3003C12.665 17.3638 12.7389 17.4143 12.8205 17.4487C12.9021 17.4832 12.9897 17.501 13.0783 17.501C13.1669 17.501 13.2545 17.4832 13.3361 17.4487C13.4177 17.4143 13.4916 17.3638 13.5533 17.3003C13.6797 17.1717 13.7504 16.9987 13.7504 16.8184C13.7504 16.6382 13.6797 16.4651 13.5533 16.3366Z" fill="white"/>
</g>
</svg>
