<svg width="24" height="24" viewBox="0 0 24 24" fill="none" xmlns="http://www.w3.org/2000/svg">
<path d="M17 2.95996H7C4.243 2.95996 2 5.32101 2 8.22312V21.9073C2 22.3326 2.244 22.7179 2.617 22.88C2.741 22.9348 2.871 22.96 3 22.96C3.26 22.96 3.516 22.8526 3.707 22.6516L6.121 20.1105C6.31 19.9126 6.56101 19.8021 6.82901 19.8021H17C19.757 19.8021 22 17.441 22 14.5389V8.22312C22 5.32101 19.757 2.95996 17 2.95996ZM20 14.5389C20 16.28 18.654 17.6968 17 17.6968H6.82901C6.02801 17.6968 5.274 18.0251 4.707 18.622L4 19.3662V8.22312C4 6.48207 5.346 5.06522 7 5.06522H17C18.654 5.06522 20 6.48207 20 8.22312V14.5389Z" fill="#B40202"/>
</svg>
