<svg width="32" height="32" viewBox="0 0 32 32" fill="none" xmlns="http://www.w3.org/2000/svg">
<g clip-path="url(#clip0_4052_107487)">
<path d="M18.2 6.875C16.9734 6.875 15.797 7.36228 14.9296 8.22963C14.0623 9.09699 13.575 10.2734 13.575 11.5V14.075H11.1C10.9757 14.075 10.875 14.1757 10.875 14.3V17.7C10.875 17.8243 10.9757 17.925 11.1 17.925H13.575V24.9C13.575 25.0243 13.6757 25.125 13.8 25.125H17.2C17.3243 25.125 17.425 25.0243 17.425 24.9V17.925H19.9219C20.0252 17.925 20.1152 17.8547 20.1402 17.7546L20.9902 14.3546C21.0257 14.2126 20.9183 14.075 20.7719 14.075H17.425V11.5C17.425 11.2945 17.5067 11.0973 17.652 10.952C17.7973 10.8067 17.9945 10.725 18.2 10.725H20.8C20.9243 10.725 21.025 10.6243 21.025 10.5V7.1C21.025 6.97574 20.9243 6.875 20.8 6.875H18.2Z" fill="#295AA5"/>
</g>
<defs>
<clipPath id="clip0_4052_107487">
<path d="M0 16C0 7.16344 7.16344 0 16 0C24.8366 0 32 7.16344 32 16C32 24.8366 24.8366 32 16 32C7.16344 32 0 24.8366 0 16Z" fill="white"/>
</clipPath>
</defs>
</svg>
