<svg width="29" height="29" viewBox="0 0 29 29" fill="none" xmlns="http://www.w3.org/2000/svg">
<path fill-rule="evenodd" clip-rule="evenodd" d="M17.7443 1.16263C16.7032 0.918309 15.6176 0.789062 14.5019 0.789062C6.70306 0.789062 0.380859 7.10368 0.380859 14.8932C0.380859 22.6826 6.70306 28.9973 14.5019 28.9973C17.5295 28.9973 20.3345 28.0456 22.6335 26.4255L15.3808 26.4248L17.7443 1.16263Z" fill="#FF7373"/>
<ellipse cx="14.5022" cy="14.8939" rx="12.1037" ry="12.0892" fill="#DE2027"/>
<path fill-rule="evenodd" clip-rule="evenodd" d="M17.3831 10.572C17.0059 10.4967 16.4964 10.4404 16.176 10.4404C15.3084 10.4404 15.252 10.8172 15.252 11.42V12.4932H17.4209L17.2318 14.7162H15.252V21.4778H12.5364V14.7162H11.1406V12.4932H12.5364V11.1181C12.5364 9.23467 13.4227 8.17969 15.6479 8.17969C16.421 8.17969 16.9868 8.29272 17.7222 8.44343L17.3831 10.572Z" fill="white"/>
</svg>
