<svg width="8" height="10" viewBox="0 0 8 10" fill="none" xmlns="http://www.w3.org/2000/svg">
<path fill-rule="evenodd" clip-rule="evenodd" d="M7.73425 6.32114C7.65076 8.0892 6.00856 9.5 3.99414 9.5C1.9263 9.5 0.250003 7.9636 0.250003 6.17996C0.250003 5.94156 0.245183 5.4651 0.648315 4.66123C0.889573 4.18014 1.04089 3.87791 1.12629 3.60164C1.17321 3.4498 1.26446 3.20857 1.5246 3.60164C1.67799 3.83341 1.68393 4.16675 1.68393 4.16675C1.68393 4.16675 2.25463 3.77841 2.63988 3.03653C3.20464 1.94893 2.75403 1.29881 2.60004 0.846716C2.54675 0.690321 2.51329 0.409248 2.87886 0.52884C3.25137 0.650728 4.23615 1.262 4.75093 1.9063C5.48562 2.82585 5.74671 3.7076 5.74671 3.7076C5.74671 3.7076 5.98196 3.44871 6.06536 3.1778C6.15956 2.8719 6.16096 2.56893 6.46363 2.89528C6.75149 3.20564 7.179 3.78887 7.41962 4.34335C7.85653 5.35027 7.73425 6.32114 7.73425 6.32114Z" fill="#8A0100"/>
<path fill-rule="evenodd" clip-rule="evenodd" d="M3.99333 9.4983C2.56343 9.4983 1.4043 8.47047 1.4043 7.20254C1.4043 6.43748 1.75198 5.97299 2.4756 5.3431C2.93891 4.93979 3.37256 4.44443 3.55686 4.10713C3.59314 4.04073 3.67571 3.69471 3.99408 4.09986C4.1611 4.31234 4.42291 4.69022 4.59079 5.01273C4.88021 5.56876 4.94928 6.10763 4.94928 6.10763C4.94928 6.10763 5.23291 5.95943 5.42725 5.57784C5.4899 5.45486 5.61657 4.98927 5.97067 5.45478C6.23049 5.7964 6.58741 6.4106 6.58236 7.20254C6.58236 8.47047 5.42319 9.4983 3.99333 9.4983Z" fill="#BD0100"/>
</svg>
