<svg width="29" height="29" viewBox="0 0 29 29" fill="none" xmlns="http://www.w3.org/2000/svg">
<path fill-rule="evenodd" clip-rule="evenodd" d="M17.8634 1.16263C16.8223 0.918309 15.7368 0.789062 14.621 0.789062C6.8222 0.789062 0.5 7.10368 0.5 14.8932C0.5 22.6826 6.8222 28.9973 14.621 28.9973C17.6486 28.9973 20.4536 28.0456 22.7526 26.4255L15.5 26.4248L17.8634 1.16263Z" fill="#FF7373"/>
<ellipse cx="14.6213" cy="14.8939" rx="12.1037" ry="12.0892" fill="#DE2027"/>
<path d="M14.6214 8.83895C16.5964 8.83895 16.8303 8.84649 17.6103 8.88203C18.3314 8.91488 18.7231 9.03523 18.9837 9.13641C19.329 9.27043 19.5754 9.43052 19.8342 9.68903C20.0931 9.94757 20.2533 10.1937 20.3875 10.5385C20.4888 10.7988 20.6093 11.19 20.6422 11.9103C20.6778 12.6893 20.6853 12.923 20.6853 14.8956C20.6853 16.8683 20.6778 17.102 20.6422 17.881C20.6093 18.6013 20.4888 18.9925 20.3875 19.2528C20.2533 19.5976 20.0931 19.8437 19.8342 20.1022C19.5754 20.3608 19.329 20.5209 18.9837 20.6549C18.7231 20.7561 18.3314 20.8764 17.6103 20.9093C16.8304 20.9448 16.5965 20.9524 14.6214 20.9524C12.6462 20.9524 12.4123 20.9448 11.6324 20.9093C10.9113 20.8764 10.5196 20.7561 10.259 20.6549C9.9137 20.5209 9.6673 20.3608 9.40848 20.1022C9.14966 19.8437 8.98935 19.5976 8.85516 19.2528C8.75387 18.9925 8.63337 18.6013 8.60048 17.881C8.5649 17.102 8.55735 16.8683 8.55735 14.8956C8.55735 12.923 8.5649 12.6893 8.60048 11.9103C8.63337 11.19 8.75387 10.7988 8.85516 10.5385C8.98935 10.1937 9.14963 9.94757 9.40848 9.68906C9.6673 9.43052 9.9137 9.27043 10.259 9.13641C10.5196 9.03523 10.9113 8.91488 11.6324 8.88203C12.4124 8.84649 12.6463 8.83895 14.6214 8.83895ZM14.6214 7.50781C12.6125 7.50781 12.3606 7.51632 11.5717 7.55227C10.7844 7.58814 10.2467 7.71304 9.7762 7.89565C9.2898 8.08445 8.8773 8.33707 8.46607 8.74778C8.05486 9.15852 7.80194 9.57052 7.61294 10.0563C7.43008 10.5263 7.30503 11.0633 7.26912 11.8497C7.23312 12.6376 7.22461 12.8892 7.22461 14.8956C7.22461 16.9021 7.23312 17.1537 7.26912 17.9416C7.30503 18.728 7.43008 19.265 7.61294 19.735C7.80194 20.2208 8.05486 20.6328 8.46607 21.0435C8.8773 21.4542 9.2898 21.7069 9.7762 21.8956C10.2467 22.0783 10.7844 22.2032 11.5717 22.239C12.3606 22.275 12.6125 22.2835 14.6214 22.2835C16.6302 22.2835 16.8821 22.275 17.671 22.239C18.4583 22.2032 18.996 22.0783 19.4665 21.8956C19.9529 21.7069 20.3654 21.4542 20.7766 21.0435C21.1878 20.6328 21.4407 20.2208 21.6298 19.735C21.8126 19.265 21.9377 18.728 21.9736 17.9416C22.0096 17.1537 22.0181 16.9021 22.0181 14.8956C22.0181 12.8892 22.0096 12.6376 21.9736 11.8497C21.9377 11.0633 21.8126 10.5263 21.6298 10.0563C21.4407 9.57052 21.1878 9.15852 20.7766 8.74778C20.3654 8.33707 19.9529 8.08445 19.4665 7.89565C18.996 7.71304 18.4583 7.58814 17.671 7.55227C16.8821 7.51632 16.6302 7.50781 14.6214 7.50781Z" fill="white"/>
<path d="M14.6245 11.1016C12.5267 11.1016 10.8262 12.8001 10.8262 14.8953C10.8262 16.9906 12.5267 18.6891 14.6245 18.6891C16.7223 18.6891 18.4228 16.9906 18.4228 14.8953C18.4228 12.8001 16.7223 11.1016 14.6245 11.1016ZM14.6245 17.3579C13.2628 17.3579 12.1589 16.2554 12.1589 14.8953C12.1589 13.5352 13.2628 12.4327 14.6245 12.4327C15.9862 12.4327 17.0901 13.5352 17.0901 14.8953C17.0901 16.2554 15.9862 17.3579 14.6245 17.3579Z" fill="white"/>
<path d="M19.4608 10.9569C19.4608 11.4465 19.0634 11.8434 18.5731 11.8434C18.083 11.8434 17.6855 11.4465 17.6855 10.9569C17.6855 10.4672 18.083 10.0703 18.5731 10.0703C19.0634 10.0703 19.4608 10.4672 19.4608 10.9569Z" fill="white"/>
</svg>
