<svg width="24" height="23" viewBox="0 0 24 23" fill="none" xmlns="http://www.w3.org/2000/svg">
<path d="M16.5 2C14.76 2 13.09 2.88283 12 4.27793C10.91 2.88283 9.24 2 7.5 2C4.42 2 2 4.6376 2 7.99455C2 12.1144 5.4 15.4714 10.55 20.5722L12 22L13.45 20.5613C18.6 15.4714 22 12.1144 22 7.99455C22 4.6376 19.58 2 16.5 2ZM12.1 18.9482L12 19.0572L11.9 18.9482C7.14 14.2507 4 11.1444 4 7.99455C4 5.81471 5.5 4.17984 7.5 4.17984C9.04 4.17984 10.54 5.25886 11.07 6.75204H12.94C13.46 5.25886 14.96 4.17984 16.5 4.17984C18.5 4.17984 20 5.81471 20 7.99455C20 11.1444 16.86 14.2507 12.1 18.9482Z" fill="#B40202"/>
</svg>
