<svg width="21" height="20" viewBox="0 0 21 20" fill="none" xmlns="http://www.w3.org/2000/svg">
<path d="M15.168 0H5.16797C2.41097 0 0.167969 2.243 0.167969 5V15C0.167969 17.757 2.41097 20 5.16797 20H15.168C17.925 20 20.168 17.757 20.168 15V5C20.168 2.243 17.925 0 15.168 0ZM18.168 9H16.168V7H18.168V9ZM4.16797 9H2.16797V7H4.16797V9ZM2.16797 11H4.16797V13H2.16797V11ZM16.168 11H18.168V13H16.168V11ZM18.168 5H16.168V2.18408C17.329 2.59808 18.168 3.698 18.168 5ZM4.16797 2.18408V5H2.16797C2.16797 3.698 3.00697 2.59808 4.16797 2.18408ZM2.16797 15H4.16797V17.8159C3.00697 17.4019 2.16797 16.302 2.16797 15ZM16.168 17.8159V15H18.168C18.168 16.302 17.329 17.4019 16.168 17.8159Z" fill="#990100"/>
</svg>
