<svg width="24" height="24" viewBox="0 0 24 24" fill="none" xmlns="http://www.w3.org/2000/svg">
<g id="uil:arrow-up">
<path id="Vector" d="M5.36944 13.391L11.6143 19.6436C11.7331 19.7574 11.8731 19.8467 12.0265 19.9062C12.3305 20.0313 12.6716 20.0313 12.9757 19.9062C13.129 19.8467 13.2691 19.7574 13.3878 19.6436L19.6327 13.391C19.7491 13.2744 19.8415 13.136 19.9045 12.9836C19.9676 12.8313 20 12.668 20 12.5031C20 12.1701 19.8679 11.8507 19.6327 11.6152C19.3975 11.3798 19.0785 11.2475 18.7459 11.2475C18.4133 11.2475 18.0943 11.3798 17.8591 11.6152L13.75 15.742L13.75 6.25052C13.75 5.91886 13.6184 5.60079 13.3842 5.36627C13.15 5.13175 12.8323 5 12.5011 5C12.1698 5 11.8521 5.13175 11.6179 5.36627C11.3837 5.60079 11.2521 5.91886 11.2521 6.25052L11.2521 15.742L7.14298 11.6152C7.02687 11.498 6.88874 11.405 6.73654 11.3415C6.58434 11.278 6.42109 11.2453 6.25621 11.2453C6.09133 11.2453 5.92809 11.278 5.77589 11.3415C5.62369 11.405 5.48555 11.498 5.36944 11.6152C5.25238 11.7315 5.15946 11.8698 5.09605 12.0222C5.03265 12.1746 5 12.338 5 12.5031C5 12.6682 5.03265 12.8317 5.09605 12.984C5.15946 13.1364 5.25238 13.2747 5.36944 13.391Z" fill="#FAFAFA"/>
</g>
</svg>
