<svg width="42" height="42" viewBox="0 0 42 42" fill="none" xmlns="http://www.w3.org/2000/svg">
<g id="arrows">
<path id="Vector" fill-rule="evenodd" clip-rule="evenodd" d="M21.3334 39.1112C31.1518 39.1112 39.1112 31.1518 39.1112 21.3334C39.1112 11.515 31.1518 3.55566 21.3334 3.55566C11.515 3.55566 3.55566 11.515 3.55566 21.3334C3.55566 31.1518 11.515 39.1112 21.3334 39.1112ZM20.8936 13.0517C20.2471 12.3127 19.1239 12.2379 18.385 12.8844C17.6461 13.531 17.5712 14.6541 18.2178 15.393L23.4157 21.3334L18.2178 27.2739C17.5712 28.0128 17.6461 29.1359 18.385 29.7825C19.1239 30.429 20.2471 30.3541 20.8936 29.6152L28.1402 21.3334L20.8936 13.0517Z" fill="white"/>
</g>
</svg>
