<svg width="64" height="64" viewBox="0 0 64 64" fill="none" xmlns="http://www.w3.org/2000/svg">
<g id="arrows">
<path id="Vector" fill-rule="evenodd" clip-rule="evenodd" d="M31.9999 58.6667C46.7275 58.6667 58.6666 46.7276 58.6666 32C58.6666 17.2724 46.7275 5.33333 31.9999 5.33333C17.2723 5.33333 5.33325 17.2724 5.33325 32C5.33325 46.7276 17.2723 58.6667 31.9999 58.6667ZM31.3402 19.5773C30.3703 18.4689 28.6856 18.3566 27.5773 19.3265C26.4689 20.2963 26.3566 21.981 27.3264 23.0893L35.1232 32L27.3264 40.9106C26.3566 42.019 26.4689 43.7037 27.5773 44.6735C28.6856 45.6434 30.3703 45.531 31.3402 44.4227L42.21 32L31.3402 19.5773Z" fill="#BABABA"/>
</g>
</svg>
