<svg width="64" height="64" viewBox="0 0 64 64" fill="none" xmlns="http://www.w3.org/2000/svg">
<g id="arrows">
<path id="Vector" fill-rule="evenodd" clip-rule="evenodd" d="M31.9999 58.6667C17.2723 58.6667 5.33325 46.7276 5.33325 32C5.33325 17.2724 17.2723 5.33333 31.9999 5.33333C46.7275 5.33333 58.6666 17.2724 58.6666 32C58.6666 46.7276 46.7275 58.6667 31.9999 58.6667ZM32.6597 19.5773C33.6295 18.4689 35.3142 18.3566 36.4226 19.3265C37.5309 20.2963 37.6432 21.981 36.6734 23.0893L28.8766 32L36.6734 40.9106C37.6432 42.019 37.5309 43.7037 36.4226 44.6735C35.3142 45.6434 33.6295 45.531 32.6597 44.4227L21.7898 32L32.6597 19.5773Z" fill="#BABABA"/>
</g>
</svg>
