<svg width="42" height="42" viewBox="0 0 42 42" fill="none" xmlns="http://www.w3.org/2000/svg">
<path fill-rule="evenodd" clip-rule="evenodd" d="M21.3334 39.1112C11.515 39.1112 3.55566 31.1518 3.55566 21.3334C3.55566 11.515 11.515 3.55566 21.3334 3.55566C31.1518 3.55566 39.1112 11.515 39.1112 21.3334C39.1112 31.1518 31.1518 39.1112 21.3334 39.1112ZM21.7733 13.0517C22.4198 12.3127 23.543 12.2379 24.2819 12.8844C25.0208 13.531 25.0957 14.6541 24.4491 15.393L19.2512 21.3334L24.4491 27.2739C25.0957 28.0128 25.0208 29.1359 24.2819 29.7825C23.543 30.429 22.4198 30.3541 21.7733 29.6152L14.5267 21.3334L21.7733 13.0517Z" fill="white"/>
</svg>
