<svg width="33" height="32" viewBox="0 0 33 32" fill="none" xmlns="http://www.w3.org/2000/svg">
<g clip-path="url(#clip0_3945_410277)">
<path d="M0.5 16C0.5 7.16344 7.66344 0 16.5 0C25.3366 0 32.5 7.16344 32.5 16C32.5 24.8366 25.3366 32 16.5 32C7.66344 32 0.5 24.8366 0.5 16Z" fill="#171717"/>
<path fill-rule="evenodd" clip-rule="evenodd" d="M11.489 8.89104C14.8247 8.63007 18.1756 8.63007 21.5113 8.89104L23.752 9.06634C25.0001 9.16398 26.0211 10.0994 26.2274 11.3341C26.7436 14.4236 26.7436 17.5774 26.2274 20.6669C26.0211 21.9017 25.0001 22.8371 23.752 22.9347L21.5113 23.11C18.1756 23.371 14.8247 23.371 11.489 23.11L9.2483 22.9347C8.00023 22.8371 6.97921 21.9017 6.7729 20.6669C6.25669 17.5774 6.25669 14.4236 6.7729 11.3341C6.97921 10.0994 8.00023 9.16398 9.2483 9.06634L11.489 8.89104ZM14.5001 18.4707V13.5304C14.5001 13.2972 14.7545 13.1532 14.9545 13.2731L19.0714 15.7433C19.2656 15.8598 19.2656 16.1412 19.0714 16.2578L14.9545 18.7279C14.7545 18.8479 14.5001 18.7038 14.5001 18.4707Z" fill="white"/>
</g>
<defs>
<clipPath id="clip0_3945_410277">
<path d="M0.5 16C0.5 7.16344 7.66344 0 16.5 0C25.3366 0 32.5 7.16344 32.5 16C32.5 24.8366 25.3366 32 16.5 32C7.66344 32 0.5 24.8366 0.5 16Z" fill="white"/>
</clipPath>
</defs>
</svg>
