<svg width="33" height="32" viewBox="0 0 33 32" fill="none" xmlns="http://www.w3.org/2000/svg">
<g clip-path="url(#clip0_3945_410283)">
<path d="M0.5 16C0.5 7.16344 7.66344 0 16.5 0C25.3366 0 32.5 7.16344 32.5 16C32.5 24.8366 25.3366 32 16.5 32C7.66344 32 0.5 24.8366 0.5 16Z" fill="#171717"/>
<path d="M24.0094 10.2773C23.8536 10.2075 23.702 10.131 23.5551 10.0481C23.1279 9.80333 22.7361 9.51489 22.3884 9.18901C21.5183 8.32613 21.1933 7.45076 21.0736 6.83787H21.0784C20.9784 6.32915 21.0198 6 21.026 6H17.063V19.2818C17.063 19.4602 17.063 19.6364 17.0543 19.8106C17.0543 19.8322 17.0519 19.8522 17.0505 19.8756C17.0505 19.8851 17.0505 19.8951 17.0481 19.9051C17.0481 19.9076 17.0481 19.9101 17.0481 19.9126C17.0063 20.3892 16.83 20.8495 16.5348 21.2532C16.2396 21.6568 15.8344 21.9914 15.3549 22.2275C14.8553 22.4739 14.2901 22.6032 13.7152 22.6025C11.8688 22.6025 10.3723 21.2976 10.3723 19.686C10.3723 18.0744 11.8688 16.7695 13.7152 16.7695C14.0647 16.7692 14.4121 16.8169 14.7444 16.9107L14.7492 13.4134C13.7404 13.3004 12.7155 13.3699 11.7391 13.6175C10.7628 13.865 9.85628 14.2852 9.07672 14.8516C8.39365 15.366 7.81939 15.9798 7.37977 16.6653C7.21248 16.9153 6.5813 17.9198 6.50486 19.5502C6.45679 20.4755 6.77743 21.4342 6.9303 21.8305V21.8388C7.02644 22.0721 7.399 22.8683 8.00616 23.5395C8.49574 24.078 9.07417 24.5509 9.72281 24.9432V24.9349L9.73243 24.9432C11.651 26.0732 13.7782 25.999 13.7782 25.999C14.1464 25.9861 15.3799 25.999 16.7808 25.4236C18.3345 24.7857 19.219 23.8354 19.219 23.8354C19.7841 23.2675 20.2334 22.6204 20.5477 21.9217C20.9063 21.1047 21.026 20.1247 21.026 19.7331V12.6867C21.0741 12.7117 21.7144 13.0788 21.7144 13.0788C21.7144 13.0788 22.6369 13.5913 24.0762 13.925C25.1088 14.1625 26.5 14.2125 26.5 14.2125V10.8027C26.0125 10.8485 25.0227 10.7152 24.0094 10.2773Z" fill="white"/>
</g>
<defs>
<clipPath id="clip0_3945_410283">
<path d="M0.5 16C0.5 7.16344 7.66344 0 16.5 0C25.3366 0 32.5 7.16344 32.5 16C32.5 24.8366 25.3366 32 16.5 32C7.66344 32 0.5 24.8366 0.5 16Z" fill="white"/>
</clipPath>
</defs>
</svg>
