<svg width="33" height="32" viewBox="0 0 33 32" fill="none" xmlns="http://www.w3.org/2000/svg">
<g clip-path="url(#clip0_3945_410267)">
<path d="M0.5 16C0.5 7.16344 7.66344 0 16.5 0C25.3366 0 32.5 7.16344 32.5 16C32.5 24.8366 25.3366 32 16.5 32C7.66344 32 0.5 24.8366 0.5 16Z" fill="#171717"/>
<path d="M9.11619 9.05469L14.8461 16.716L9.08008 22.945H10.3779L15.4261 17.4913L19.5048 22.945H23.921L17.8686 14.8528L23.2356 9.05469H21.9378L17.2888 14.0773L13.5324 9.05469H9.11619ZM11.0247 10.0105H13.0534L22.0123 21.9891H19.9835L11.0247 10.0105Z" fill="#EAEAEA"/>
</g>
<defs>
<clipPath id="clip0_3945_410267">
<path d="M0.5 16C0.5 7.16344 7.66344 0 16.5 0C25.3366 0 32.5 7.16344 32.5 16C32.5 24.8366 25.3366 32 16.5 32C7.66344 32 0.5 24.8366 0.5 16Z" fill="white"/>
</clipPath>
</defs>
</svg>
