<svg width="20" height="20" viewBox="0 0 20 20" fill="none" xmlns="http://www.w3.org/2000/svg">
<path d="M19.354 18.647L14.491 13.784C15.737 12.373 16.5 10.526 16.5 8.5C16.5 4.089 12.911 0.5 8.5 0.5C4.089 0.5 0.5 4.089 0.5 8.5C0.5 12.911 4.089 16.5 8.5 16.5C10.526 16.5 12.373 15.737 13.784 14.491L18.647 19.354C18.745 19.452 18.873 19.5 19.001 19.5C19.129 19.5 19.257 19.451 19.355 19.354C19.549 19.159 19.549 18.843 19.354 18.647ZM8.5 15.501C4.64 15.501 1.5 12.361 1.5 8.50101C1.5 4.64101 4.64 1.50101 8.5 1.50101C12.36 1.50101 15.5 4.64101 15.5 8.50101C15.5 12.361 12.36 15.501 8.5 15.501Z" fill="#8A0100"/>
</svg>
