<svg width="33" height="32" viewBox="0 0 33 32" fill="none" xmlns="http://www.w3.org/2000/svg">
<g clip-path="url(#clip0_3945_410255)">
<path d="M0.5 16C0.5 7.16344 7.66344 0 16.5 0C25.3366 0 32.5 7.16344 32.5 16C32.5 24.8366 25.3366 32 16.5 32C7.66344 32 0.5 24.8366 0.5 16Z" fill="#171717"/>
<path d="M20.4997 11.0005C20.4997 10.4482 20.9474 10.0005 21.4997 10.0005C22.052 10.0005 22.4997 10.4482 22.4997 11.0005C22.4997 11.5528 22.052 12.0005 21.4997 12.0005C20.9474 12.0005 20.4997 11.5528 20.4997 11.0005Z" fill="white"/>
<path fill-rule="evenodd" clip-rule="evenodd" d="M16.4997 11.2505C13.8763 11.2505 11.7497 13.3772 11.7497 16.0005C11.7497 18.6239 13.8763 20.7505 16.4997 20.7505C19.123 20.7505 21.2497 18.6239 21.2497 16.0005C21.2497 13.3772 19.123 11.2505 16.4997 11.2505ZM13.2497 16.0005C13.2497 14.2056 14.7048 12.7505 16.4997 12.7505C18.2946 12.7505 19.7497 14.2056 19.7497 16.0005C19.7497 17.7955 18.2946 19.2505 16.4997 19.2505C14.7048 19.2505 13.2497 17.7955 13.2497 16.0005Z" fill="white"/>
<path fill-rule="evenodd" clip-rule="evenodd" d="M21.7579 6.83355C18.2914 6.44611 14.708 6.44611 11.2415 6.83355C9.22941 7.05843 7.60507 8.64344 7.36852 10.666C6.95398 14.2103 6.95398 17.7908 7.36852 21.3351C7.60507 23.3576 9.22941 24.9426 11.2415 25.1675C14.708 25.555 18.2914 25.555 21.7579 25.1675C23.77 24.9426 25.3943 23.3576 25.6309 21.3351C26.0454 17.7908 26.0454 14.2103 25.6309 10.666C25.3943 8.64344 23.77 7.05843 21.7579 6.83355ZM11.4081 8.32427C14.7639 7.9492 18.2355 7.9492 21.5913 8.32427C22.9214 8.47293 23.9869 9.52254 24.141 10.8402C24.542 14.2687 24.542 17.7323 24.141 21.1609C23.9869 22.4785 22.9214 23.5281 21.5913 23.6768C18.2355 24.0519 14.7639 24.0519 11.4081 23.6768C10.078 23.5281 9.01248 22.4785 8.85837 21.1609C8.45737 17.7323 8.45737 14.2687 8.85837 10.8402C9.01248 9.52254 10.078 8.47293 11.4081 8.32427Z" fill="white"/>
</g>
<defs>
<clipPath id="clip0_3945_410255">
<path d="M0.5 16C0.5 7.16344 7.66344 0 16.5 0C25.3366 0 32.5 7.16344 32.5 16C32.5 24.8366 25.3366 32 16.5 32C7.66344 32 0.5 24.8366 0.5 16Z" fill="white"/>
</clipPath>
</defs>
</svg>
