<svg width="33" height="32" viewBox="0 0 33 32" fill="none" xmlns="http://www.w3.org/2000/svg">
<g clip-path="url(#clip0_3945_410261)">
<path d="M0.5 16C0.5 7.16344 7.66344 0 16.5 0C25.3366 0 32.5 7.16344 32.5 16C32.5 24.8366 25.3366 32 16.5 32C7.66344 32 0.5 24.8366 0.5 16Z" fill="#171717"/>
<path d="M18.7 6.875C17.4734 6.875 16.297 7.36228 15.4296 8.22963C14.5623 9.09699 14.075 10.2734 14.075 11.5V14.075H11.6C11.4757 14.075 11.375 14.1757 11.375 14.3V17.7C11.375 17.8243 11.4757 17.925 11.6 17.925H14.075V24.9C14.075 25.0243 14.1757 25.125 14.3 25.125H17.7C17.8243 25.125 17.925 25.0243 17.925 24.9V17.925H20.4219C20.5252 17.925 20.6152 17.8547 20.6402 17.7546L21.4902 14.3546C21.5257 14.2126 21.4183 14.075 21.2719 14.075H17.925V11.5C17.925 11.2945 18.0067 11.0973 18.152 10.952C18.2973 10.8067 18.4945 10.725 18.7 10.725H21.3C21.4243 10.725 21.525 10.6243 21.525 10.5V7.1C21.525 6.97574 21.4243 6.875 21.3 6.875H18.7Z" fill="white"/>
</g>
<defs>
<clipPath id="clip0_3945_410261">
<path d="M0.5 16C0.5 7.16344 7.66344 0 16.5 0C25.3366 0 32.5 7.16344 32.5 16C32.5 24.8366 25.3366 32 16.5 32C7.66344 32 0.5 24.8366 0.5 16Z" fill="white"/>
</clipPath>
</defs>
</svg>
