<svg width="29" height="29" viewBox="0 0 29 29" fill="none" xmlns="http://www.w3.org/2000/svg">
<path fill-rule="evenodd" clip-rule="evenodd" d="M18.0587 1.16263C17.0176 0.918309 15.9321 0.789062 14.8163 0.789062C7.01752 0.789062 0.695312 7.10368 0.695312 14.8932C0.695312 22.6826 7.01752 28.9973 14.8163 28.9973C17.8439 28.9973 20.6489 28.0456 22.9479 26.4255L15.6953 26.4248L18.0587 1.16263Z" fill="#FF7373"/>
<ellipse cx="14.8166" cy="14.8939" rx="12.1037" ry="12.0892" fill="#DE2027"/>
<g clip-path="url(#clip0_4682_398863)">
<path d="M19.1995 11.0895C19.1017 11.039 19.0064 10.9836 18.9141 10.9236C18.6456 10.7463 18.3995 10.5374 18.181 10.3014C17.6342 9.67661 17.43 9.04273 17.3548 8.59892H17.3578C17.295 8.23054 17.321 7.99219 17.3249 7.99219H14.8346V17.61C14.8346 17.7391 14.8346 17.8667 14.8292 17.9928C14.8292 18.0085 14.8277 18.023 14.8268 18.0399C14.8268 18.0468 14.8268 18.0541 14.8253 18.0613V18.0668C14.799 18.4118 14.6883 18.7452 14.5028 19.0375C14.3173 19.3298 14.0627 19.5721 13.7614 19.743C13.4474 19.9215 13.0923 20.015 12.731 20.0146C11.5708 20.0146 10.6305 19.0696 10.6305 17.9026C10.6305 16.7356 11.5708 15.7907 12.731 15.7907C12.9507 15.7905 13.1689 15.825 13.3778 15.893L13.3808 13.3604C12.7469 13.2787 12.1028 13.329 11.4894 13.5082C10.8759 13.6875 10.3062 13.9918 9.81639 14.4019C9.38717 14.7744 9.02632 15.2189 8.75008 15.7153C8.64496 15.8963 8.24835 16.6237 8.20032 17.8043C8.17011 18.4744 8.37159 19.1686 8.46765 19.4555V19.4615C8.52806 19.6305 8.76217 20.2071 9.14368 20.6931C9.45132 21.083 9.81478 21.4255 10.2224 21.7096V21.7035L10.2284 21.7096C11.434 22.5278 12.7706 22.4741 12.7706 22.4741C13.002 22.4647 13.7771 22.4741 14.6573 22.0574C15.6336 21.5955 16.1894 20.9073 16.1894 20.9073C16.5445 20.4961 16.8268 20.0275 17.0243 19.5216C17.2497 18.9299 17.3249 18.2203 17.3249 17.9367V12.8343C17.3551 12.8524 17.7575 13.1182 17.7575 13.1182C17.7575 13.1182 18.3371 13.4893 19.2415 13.7309C19.8904 13.9029 20.7645 13.9391 20.7645 13.9391V11.47C20.4583 11.5031 19.8363 11.4066 19.1995 11.0895Z" fill="white"/>
</g>
<defs>
<clipPath id="clip0_4682_398863">
<rect width="15.4659" height="15.4473" fill="white" transform="translate(6.74805 7.50781)"/>
</clipPath>
</defs>
</svg>
