<svg width="32" height="32" viewBox="0 0 32 32" fill="none" xmlns="http://www.w3.org/2000/svg">
<g clip-path="url(#clip0_4052_107481)">
<path d="M13.9205 11.4077L13.9208 11.4083C14.0521 11.7008 14.2695 12.2302 14.4429 12.6526L14.4463 12.6609C14.5148 12.8277 14.5766 12.9782 14.6247 13.0939C14.6488 13.1518 14.669 13.1997 14.6845 13.236C14.6983 13.2681 14.7053 13.2835 14.7073 13.288C14.7078 13.2891 14.708 13.2895 14.7079 13.2893C14.8081 13.4887 14.9102 13.8118 14.7302 14.1808L13.9205 11.4077ZM13.9205 11.4077C13.7997 11.1396 13.643 10.9281 13.4222 10.8001M13.9205 11.4077L13.4222 10.8001M17.254 17.965C17.1997 17.938 17.1318 17.9087 17.0692 17.8817L17.0601 17.8778L17.059 17.8773C16.7137 17.7283 16.0551 17.4441 15.291 16.7639L15.2902 16.7631C14.6439 16.1904 14.181 15.4832 14.0001 15.1828C14.0873 15.0945 14.1807 14.9816 14.2562 14.8903L14.2652 14.8795C14.3145 14.8199 14.3589 14.7663 14.4006 14.7184L14.4007 14.7183C14.5584 14.5371 14.6307 14.3871 14.6991 14.2451L14.703 14.2371L14.703 14.2371L14.7302 14.1809L13.9544 15.1104L13.9256 15.127L13.9254 15.1272L13.5239 15.3599M17.254 17.965L17.2448 17.9834C17.2493 17.9782 17.2539 17.9728 17.2587 17.9673M17.254 17.965C17.254 17.965 17.2539 17.9649 17.2539 17.9649L17.2446 17.9836C17.2324 17.9978 17.2213 18.0108 17.2114 18.0223L17.2113 18.0223C17.1985 18.0372 17.1988 18.0333 17.2134 18.0241C17.2134 18.0241 17.2134 18.0241 17.2134 18.0241C17.2139 18.0237 17.2145 18.0234 17.2151 18.023C17.219 18.0207 17.2235 18.0181 17.2287 18.0155L17.2212 18.0307L17.2212 18.0308L17.0312 18.4126M17.254 17.965C17.2556 17.9658 17.2571 17.9665 17.2587 17.9673M17.2587 17.9673C17.2993 17.9872 17.3216 17.9942 17.3296 17.9963C17.3307 17.9966 17.3312 17.9967 17.3312 17.9967C17.3312 17.9967 17.3171 17.9938 17.2932 17.9966C17.2791 17.9983 17.2643 18.0016 17.2497 18.0068C17.2419 18.0095 17.2349 18.0125 17.2288 18.0155L17.2212 18.0308L17.2212 18.0308L17.0312 18.4126M17.2587 17.9673C17.4477 17.747 17.85 17.2736 17.9909 17.0662M17.0312 18.4126C17.2885 18.5406 17.4418 18.5209 17.5902 18.3486C17.7387 18.1762 18.2333 17.6001 18.4065 17.3441M17.0312 18.4126C16.9894 18.3918 16.9324 18.3672 16.862 18.3368C16.4997 18.1805 15.7829 17.8712 14.9586 17.1373C14.1918 16.4579 13.6724 15.6159 13.5239 15.3599M17.9909 17.0662C17.9901 17.0673 17.9894 17.0685 17.9886 17.0696L18.4065 17.3441M17.9909 17.0662C17.9914 17.0654 17.9919 17.0647 17.9924 17.064L18.4065 17.3441M17.9909 17.0662C18.1286 16.858 18.329 16.6876 18.6114 16.6544C18.8384 16.6276 19.0465 16.7053 19.1556 16.746L19.16 16.7477L19.1601 16.7477C19.3062 16.8022 19.7095 16.9933 20.0752 17.1693C20.4553 17.3523 20.8382 17.5404 20.969 17.6055L20.9691 17.6055C21.0162 17.629 21.0606 17.6502 21.1049 17.6715L20.8888 18.1224M18.4065 17.3441C18.5747 17.0881 18.7478 17.1275 18.9853 17.2161C19.2227 17.3047 20.4891 17.9251 20.7463 18.0531C20.7971 18.0784 20.8447 18.1012 20.8888 18.1224M13.5239 15.3599L13.9253 15.1271L13.9255 15.127L13.9543 15.1103L14.0236 14.3899C13.977 14.4435 13.9284 14.5022 13.88 14.5607C13.7948 14.6636 13.7102 14.7658 13.6377 14.838C13.5091 14.9659 13.3755 15.1039 13.5239 15.3599ZM20.8888 18.1224L21.1049 17.6715L21.1171 17.6774C21.1965 17.7154 21.2919 17.7611 21.3733 17.8108C21.4583 17.8627 21.5835 17.9509 21.671 18.0984M20.8888 18.1224C21.0677 18.2082 21.1894 18.2665 21.241 18.3535M21.671 18.0984L21.0926 19.5746C21.3053 18.9739 21.3053 18.4618 21.241 18.3535M21.671 18.0984C21.7506 18.2325 21.767 18.387 21.7733 18.4663C21.7816 18.5722 21.7798 18.6933 21.7688 18.822C21.7467 19.0806 21.6846 19.4006 21.5639 19.7415L21.5627 19.7449C21.3959 20.2053 20.9606 20.5749 20.5892 20.8141C20.2114 21.0574 19.751 21.2604 19.3982 21.2934M21.671 18.0984C21.671 18.0983 21.6709 18.0983 21.6709 18.0982L21.241 18.3535M21.241 18.3535L19.3982 21.2934M19.3982 21.2934C19.3609 21.2969 19.3228 21.3015 19.2756 21.3072L19.2155 20.8108L19.2756 21.3072C19.0357 21.3362 18.7353 21.3714 18.2297 21.2866C17.7426 21.2049 17.0761 21.0143 16.0764 20.6208C13.5063 19.61 11.8347 17.139 11.5009 16.6455L11.4953 16.6371L11.9094 16.357L11.4953 16.6371L11.4646 16.5919L11.4563 16.5799C11.4558 16.5791 11.4554 16.5786 11.4551 16.5783L11.4509 16.5726L11.4509 16.5725L11.4508 16.5725C11.3717 16.4666 11.0892 16.0886 10.8259 15.5683C10.566 15.0548 10.3032 14.3608 10.3032 13.6269C10.3032 12.2415 10.9995 11.5018 11.2936 11.191L11.2936 11.191C11.311 11.1727 11.3248 11.158 11.3369 11.145C11.3369 11.1449 11.3369 11.1449 11.3369 11.1449L19.3982 21.2934ZM13.4222 10.8001C13.2113 10.6778 13.0043 10.6726 12.9096 10.6703M13.4222 10.8001L12.9096 10.6703M12.9096 10.6703C12.9065 10.6702 12.9035 10.6701 12.9007 10.6701L12.9096 10.6703ZM11.5163 24.1816C11.4048 24.1212 11.2745 24.1054 11.1518 24.1375L6.71214 25.2971L7.89671 20.9973C7.93232 20.868 7.91453 20.7299 7.84734 20.6139C7.01903 19.1837 6.58339 17.562 6.58399 15.9115V15.9114C6.58399 10.7246 10.8297 6.5 16.0419 6.5C18.5761 6.5 20.9474 7.48164 22.7334 9.25928C24.5188 11.0364 25.4999 13.4003 25.4999 15.9163C25.4999 21.103 21.2542 25.3275 16.0419 25.3275H16.037C14.4534 25.3275 12.8978 24.93 11.5163 24.1816Z" fill="#25D366" stroke="#25D366" stroke-linejoin="round"/>
</g>
<defs>
<clipPath id="clip0_4052_107481">
<path d="M0 16C0 7.16344 7.16344 0 16 0C24.8366 0 32 7.16344 32 16C32 24.8366 24.8366 32 16 32C7.16344 32 0 24.8366 0 16Z" fill="white"/>
</clipPath>
</defs>
</svg>
