<svg width="29" height="29" viewBox="0 0 29 29" fill="none" xmlns="http://www.w3.org/2000/svg">
<path fill-rule="evenodd" clip-rule="evenodd" d="M17.6251 1.16263C16.584 0.918309 15.4985 0.789062 14.3828 0.789062C6.58392 0.789062 0.261719 7.10368 0.261719 14.8932C0.261719 22.6826 6.58392 28.9973 14.3828 28.9973C17.4103 28.9973 20.2153 28.0456 22.5143 26.4255L15.2617 26.4248L17.6251 1.16263Z" fill="#FF7373"/>
<ellipse cx="14.383" cy="14.8939" rx="12.1037" ry="12.0892" fill="#DE2027"/>
<g clip-path="url(#clip0_4813_414683)">
<path fill-rule="evenodd" clip-rule="evenodd" d="M12.7446 15.2581L7.5 8.58594H11.6541L14.8916 12.7098L18.3503 8.60451H20.6382L15.9978 14.1189L21.5 21.1276H17.3583L13.8528 16.6679L10.1103 21.1152H7.81001L12.7446 15.2581ZM17.962 19.8914L10.0472 9.82218H11.05L18.9548 19.8914H17.962Z" fill="white"/>
</g>
<defs>
<clipPath id="clip0_4813_414683">
<rect width="14" height="14" fill="white" transform="translate(7.5 8)"/>
</clipPath>
</defs>
</svg>
