<svg width="29" height="29" viewBox="0 0 29 29" fill="none" xmlns="http://www.w3.org/2000/svg">
<path fill-rule="evenodd" clip-rule="evenodd" d="M18.1779 1.16263C17.1368 0.918309 16.0512 0.789062 14.9355 0.789062C7.13666 0.789062 0.814453 7.10368 0.814453 14.8932C0.814453 22.6826 7.13666 28.9973 14.9355 28.9973C17.963 28.9973 20.7681 28.0456 23.0671 26.4255L15.8144 26.4248L18.1779 1.16263Z" fill="#FF7373"/>
<ellipse cx="14.9358" cy="14.8939" rx="12.1037" ry="12.0892" fill="#DE2027"/>
<path fill-rule="evenodd" clip-rule="evenodd" d="M21.526 10.3461C21.7557 10.5844 21.9212 10.8809 22.0061 11.2062C22.4947 13.2462 22.3818 16.468 22.0155 18.5867C21.9307 18.9119 21.7652 19.2085 21.5354 19.4467C21.3057 19.685 21.0198 19.8567 20.7063 19.9447C19.5583 20.2694 14.9378 20.2694 14.9378 20.2694C14.9378 20.2694 10.3173 20.2694 9.16934 19.9447C8.85575 19.8567 8.56987 19.685 8.34015 19.4467C8.11044 19.2085 7.94491 18.9119 7.86005 18.5867C7.36859 16.5556 7.50332 13.3318 7.85057 11.216C7.93542 10.8908 8.10095 10.5942 8.33066 10.356C8.56038 10.1177 8.84627 9.94603 9.15985 9.85802C10.3079 9.53328 14.9283 9.52344 14.9283 9.52344C14.9283 9.52344 19.5488 9.52344 20.6968 9.84818C21.0104 9.93619 21.2962 10.1079 21.526 10.3461ZM17.2907 14.8964L13.4577 17.1991V12.5937L17.2907 14.8964Z" fill="white"/>
</svg>
