<svg width="40" height="40" viewBox="0 0 40 40" fill="none" xmlns="http://www.w3.org/2000/svg">
<path d="M12.3251 16.0811H8.45508V30H12.3251V16.0811Z" fill="#C80201"/>
<path d="M28.1003 23.3718L18.9453 10.0096L15.3253 10L15.2803 29.9425L19.1503 29.9521L19.1803 16.5947L28.3353 29.9713L31.9553 29.9809L32.0003 10.0336L28.1303 10.0288L28.1003 23.3718Z" fill="#171717"/>
<path d="M12.77 12.3568C12.77 12.8096 12.6301 13.2523 12.3681 13.6288C12.106 14.0052 11.7335 14.2987 11.2977 14.472C10.8619 14.6453 10.3824 14.6906 9.91972 14.6023C9.45707 14.5139 9.0321 14.2959 8.69855 13.9757C8.365 13.6555 8.13785 13.2476 8.04583 12.8035C7.9538 12.3594 8.00103 11.899 8.18155 11.4807C8.36206 11.0624 8.66776 10.7048 9.05997 10.4532C9.45218 10.2017 9.9133 10.0674 10.385 10.0674C10.6984 10.0668 11.0088 10.1255 11.2985 10.2404C11.5882 10.3552 11.8513 10.5238 12.0729 10.7365C12.2945 10.9493 12.4702 11.2019 12.5898 11.4799C12.7094 11.758 12.7707 12.056 12.77 12.3568Z" fill="#C80201"/>
</svg>
