<svg width="79" height="24" viewBox="0 0 79 24" fill="none" xmlns="http://www.w3.org/2000/svg">
<path d="M46.8687 5.27192V0.0253457C44.2298 0.0253457 41.5334 0.0253457 38.8371 0.0253457C37.6323 0.0253457 36.4849 -0.0316822 35.3376 0.0253457C33.1576 0.196429 31.4365 0.823733 30.0023 1.67915C28.7401 2.47754 27.6501 3.44702 26.847 4.58758C26.7322 4.70163 26.6749 4.87272 26.5601 4.98678C26.4454 4.75867 26.3307 4.47352 26.2159 4.24541C25.4127 2.70565 24.1506 1.50806 22.6017 0.766701C21.2822 0.310478 19.7332 0.139405 18.0695 0.0823771C17.2664 0.0823771 16.4632 0.0253457 15.6027 0.0253457C14.2832 0.0253457 12.9637 0.0253457 11.6442 0.0253457H8.94786H7.3989H7.05469C7.05469 0.0253457 7.05469 0.0253492 7.11206 0.0823771C7.2268 0.196433 7.34154 0.367509 7.45628 0.538593C7.68575 0.937788 7.85786 1.33699 8.02997 1.73618C8.31681 2.47754 8.48891 3.44702 8.54628 4.0173C8.54628 4.24541 8.48891 4.30244 8.54628 4.58758C8.71839 4.53055 8.89049 4.47353 9.00523 4.4165C9.2347 4.30244 9.46419 4.18839 9.69366 4.13136C10.9558 3.73216 12.5047 3.50405 14.2258 3.50405C15.9469 3.50405 17.6679 3.67513 18.9874 4.30244C19.389 4.47352 19.9627 4.87271 20.1348 5.38596C19.848 5.44299 17.1516 5.32893 16.2911 5.38596C16.9221 6.92571 18.758 6.75463 22.0854 6.75463C22.7164 6.75463 23.1754 6.75464 23.6343 6.92572C24.0933 7.09681 24.4948 7.26788 24.8391 7.61005C25.3554 8.1233 25.9291 9.09278 25.8717 10.0052C25.8717 10.1193 25.8717 10.2904 25.8143 10.2904C25.757 10.2904 25.5849 10.1193 25.4701 10.0623C24.667 9.43495 23.4048 9.43495 22.2575 9.49198C21.0527 9.549 19.848 9.77712 18.7579 10.1193C16.6353 10.7466 14.8569 11.4879 13.1932 12.4574C12.6769 12.7996 12.1605 13.1418 11.6442 13.4269C11.3 13.712 10.8984 13.9402 10.5542 14.2253C10.4395 14.2823 10.2674 14.3964 10.2674 14.5675C10.2674 14.7956 10.4968 15.1947 10.6116 15.4799C11.0132 16.3353 11.4147 17.1337 11.8737 17.8181C12.5047 18.7875 13.2505 19.6429 13.9963 20.3843C15.4306 21.867 17.0943 23.0076 18.8727 23.9771H28.6254C28.6254 23.863 21.9132 21.4108 18.7006 16.3924C18.6432 16.2783 18.6432 16.1642 18.5858 16.1072C18.758 16.1072 18.9874 16.1072 19.1595 16.1072C21.1101 16.1072 22.8885 15.4229 24.2654 14.2823C27.0191 24.9465 37.8618 23.9771 40.5008 23.9771H46.1803H46.9261V17.647C44.9756 17.647 43.025 17.647 41.0745 17.647C40.2139 17.647 39.4108 17.704 38.6076 17.5899C38.2634 17.5329 32.1249 17.0767 32.1249 12.1723C32.1249 10.5755 32.6986 9.43495 33.5018 8.57953C33.9034 8.1233 34.3623 7.78114 34.936 7.496C35.5097 7.21086 36.0834 7.03977 36.8292 6.86869C37.0013 6.81166 37.3455 6.81166 37.575 6.81166H46.9261L46.8687 5.27192Z" fill="#034EA1"/>
<path d="M14.1701 23.8056C13.4243 23.3494 12.7359 22.8362 12.0475 22.2659C10.9001 21.2964 9.8101 20.1558 8.8922 18.8442C8.66272 18.5591 8.49061 18.2169 8.31851 17.9318C7.97429 17.3045 7.63007 16.6772 7.34323 15.9358C7.17112 15.4796 6.99902 14.9663 6.82691 14.5101C6.4827 13.3125 6.19586 12.1149 6.02375 11.0314C5.85164 9.94784 5.79427 8.86433 5.67953 7.83783C5.62216 7.32457 5.62216 6.81132 5.56479 6.29807C5.56479 5.78482 5.50743 5.27156 5.45006 4.75831C5.39269 3.67478 5.04847 2.02097 4.41741 1.10853C4.01583 0.595275 3.44214 0.253115 2.81108 0.0820312H2.75371H0V23.9197H2.75371V23.9767H11.2443H12.7933C12.7933 23.9767 12.7933 23.9767 12.7359 23.9197L14.1701 23.8056C14.2275 23.8627 14.2275 23.8627 14.1701 23.8056Z" fill="#034EA1"/>
<path d="M79 0.0234375H71.7715V23.8611H79V0.0234375Z" fill="#034EA1"/>
<path d="M70.566 0.0234375H62.9359H55.7075H48.1348V6.63867H55.7075V23.8611H62.9359V6.63867H70.566V0.0234375Z" fill="#034EA1"/>
<path d="M79 5.26562H71.7715V6.63429H79V5.26562Z" fill="#EC1C24"/>
<path d="M70.5087 5.26562H48.1348V6.63429H70.5087V5.26562Z" fill="#EC1C24"/>
<path d="M23.352 5.26562H16.4678C16.4104 5.26562 16.2957 5.26562 16.2383 5.26562C16.5825 6.2351 17.6151 6.52023 18.8199 6.63429H23.6389H46.6438H46.8159H46.8733V6.40618V6.23509V5.26562H23.4668H23.352Z" fill="#EC1C24"/>
</svg>
