<svg width="62" height="15" viewBox="0 0 62 15" fill="none" xmlns="http://www.w3.org/2000/svg">
<g id="Logo/MNC Portal/MNC Portal 190x48 px" clip-path="url(#clip0_3945_410197)">
<path id="Vector" d="M23.9485 1.16574C23.5971 1.92545 22.9764 3.53895 22.9764 3.53895L22.2156 1.49654C22.2156 1.49654 21.8196 0.416071 20.5529 0.416071H18.9385V5.32455H20.5511V1.91842C20.5511 1.91842 20.7441 1.9519 21.1168 2.92556C21.4894 3.89922 22.0428 5.33359 22.0428 5.33359H23.1301C23.1301 5.33359 23.9118 5.28672 24.3655 4.14364L24.9516 2.67042C24.9516 2.67042 25.2436 1.86685 25.5122 1.77176V5.32288H27.1115V0.414397H25.5122C25.5122 0.414397 24.2981 0.406361 23.9485 1.16574ZM32.3682 3.8731C32.3682 3.8731 30.9255 1.86183 30.7095 1.52433C30.3404 1.06127 29.8835 0.414397 29.1037 0.414397H27.4849V5.32288H29.1019V1.86384C29.1019 1.86384 30.5439 3.87612 30.761 4.21328C31.1311 4.67601 31.5469 5.32288 32.3664 5.32288H33.9701V0.414397H32.3682V3.8731ZM39.8647 4.06127L39.8528 4.05022H37.366C37.0324 4.05022 36.7124 3.92697 36.4765 3.70758C36.2405 3.48819 36.108 3.19063 36.108 2.88036C36.108 2.57009 36.2405 2.27253 36.4765 2.05314C36.7124 1.83374 37.0324 1.71049 37.366 1.71049H39.7546C39.9551 1.50458 40.1701 1.34219 40.3198 1.20391L41.1865 0.414062H37.0279C35.5463 0.414062 34.3452 1.51897 34.3452 2.87969C34.3452 4.2404 35.5463 5.34598 37.0279 5.34598H41.2387L39.8647 4.06127Z" fill="white"/>
<path id="Vector_2" d="M9.8372 1.11034C9.53152 0.901081 9.29713 0.629541 9.01917 0.40722C8.71332 0.139704 8.30773 -0.00694499 7.88788 -0.00182335C7.46804 0.00329829 7.06673 0.159791 6.76852 0.434675L6.7408 0.460456C6.66303 0.521059 6.58598 0.586684 6.50893 0.653313L4.20679 2.77508C4.20247 2.79282 4.19959 2.8109 4.19563 2.82898C4.01777 3.63423 4.58556 4.22284 4.58556 4.22284L5.86589 5.44394L7.91635 7.36514L8.6152 6.71391L10.1123 5.33412L11.2453 4.30688C11.2709 4.28613 11.2961 4.26737 11.3199 4.24762C11.3436 4.22787 11.3868 4.19907 11.438 4.16626C11.6962 4.0016 11.9962 3.90257 12.3082 3.87898C12.4654 3.8665 12.6238 3.87416 12.7788 3.90175C12.8263 3.91113 12.8583 3.91916 12.8778 3.92452C12.8811 3.92546 12.8845 3.92614 12.8879 3.92653C12.8911 3.92854 12.8922 3.92854 12.8922 3.92854L9.8372 1.11034Z" fill="#FDD600"/>
<path id="Vector_3" d="M15.1938 6.04917L12.8895 3.9264C12.8861 3.92601 12.8827 3.92533 12.8794 3.92439C12.86 3.91903 12.8279 3.911 12.7804 3.90162C12.6254 3.87403 12.4671 3.86637 12.3098 3.87885C11.9978 3.90244 11.6978 4.00147 11.4396 4.16613C11.3885 4.19961 11.3485 4.2274 11.3215 4.24749C11.2945 4.26758 11.2725 4.286 11.247 4.30676L10.1139 5.33399L8.61682 6.71379L7.91797 7.36502L9.82621 9.10609L11.2714 10.4574C11.2715 10.458 11.2717 10.4585 11.272 10.459C11.2723 10.4594 11.2727 10.4598 11.2732 10.4601C11.3301 10.5164 11.5109 10.7156 11.6333 11.0963C11.7188 11.3699 11.733 11.6586 11.6747 11.9383C11.67 11.9537 11.6675 11.9645 11.6675 11.9648H11.67L11.958 11.6926L13.8663 9.89961L15.4044 8.46926C15.6531 8.23848 15.813 7.93794 15.8595 7.61412C15.8729 7.53512 15.8805 7.45536 15.8822 7.37539C15.8948 6.79649 15.5848 6.42818 15.1938 6.04917Z" fill="#213E7A"/>
<path id="Vector_4" d="M11.6348 11.0972C11.5124 10.7178 11.3317 10.5186 11.2748 10.461C11.273 10.461 11.2726 10.4583 11.2715 10.4576L9.82631 9.10631L7.91806 7.36523L6.04582 9.13979L4.59015 10.4898C4.40061 10.6475 4.17652 10.7651 3.93334 10.8345C3.69017 10.9039 3.4337 10.9233 3.18165 10.8916C3.13124 10.8845 3.0794 10.8768 3.02539 10.8675L5.98065 13.6371C6.34646 13.9763 6.85952 14.6556 7.75604 14.7226C8.00508 14.7579 8.25956 14.7384 8.49901 14.6656C8.73846 14.5928 8.95618 14.4687 9.13466 14.3034L10.9252 12.6357L11.6575 11.9771L11.669 11.9664C11.669 11.9664 11.6715 11.9553 11.6762 11.9399C11.7346 11.6599 11.7204 11.371 11.6348 11.0972Z" fill="#EA3E24"/>
<path id="Vector_5" d="M11.2725 10.459C11.2725 10.459 11.2725 10.4609 11.2755 10.4621C11.2747 10.462 11.2739 10.4616 11.2734 10.461C11.2729 10.4605 11.2725 10.4597 11.2725 10.459Z" fill="#EA3E24"/>
<path id="Vector_6" d="M5.86608 5.44621L4.58576 4.22511C4.58576 4.22511 4.01797 3.6365 4.19583 2.83125C4.19979 2.81317 4.20267 2.79509 4.20699 2.77734L1.1736 5.56808C0.794112 5.92132 0.016051 6.42489 0.000208918 7.32656C-0.00915229 7.90614 0.297247 8.2798 0.684297 8.66351L2.97419 10.8191L3.02424 10.865V10.867C3.07825 10.8763 3.13009 10.884 3.1805 10.8911C3.43255 10.9228 3.68902 10.9034 3.93219 10.834C4.17536 10.7646 4.39946 10.647 4.589 10.4893L6.04323 9.14297L7.91547 7.36842L5.86608 5.44621Z" fill="#3F9143"/>
<path id="Vector_7" d="M3.65137 7.36735C3.65137 5.1957 5.55961 3.43555 7.91684 3.43555C10.273 3.43555 12.1816 5.1957 12.1816 7.36735C12.1816 9.53968 10.2733 11.2992 7.91684 11.2992C5.56069 11.2992 3.65137 9.53968 3.65137 7.36735ZM3.94949 7.36735C3.94897 7.84877 4.05157 8.32546 4.25131 8.7696C4.45104 9.21374 4.7439 9.61644 5.1128 9.95419C5.85893 10.6419 6.86739 11.0271 7.91792 11.0256C8.96839 11.0273 9.97683 10.6421 10.7227 9.95419C11.0906 9.61594 11.3825 9.21307 11.5814 8.76898C11.7804 8.32489 11.8825 7.84845 11.8817 7.36735C11.8818 6.88632 11.7793 6.41004 11.58 5.96615C11.3806 5.52226 11.0885 5.1196 10.7205 4.78153C9.97492 4.09328 8.96631 3.70799 7.91576 3.7101C6.86515 3.70823 5.85653 4.09348 5.11064 4.78153C4.74223 5.11936 4.44975 5.52195 4.25022 5.96588C4.05069 6.40981 3.94809 6.88621 3.94841 7.36735H3.94949Z" fill="white"/>
<path id="Vector_8" d="M12.0718 7.36646C12.0719 8.1309 11.8282 8.87819 11.3715 9.51382C10.9149 10.1494 10.2658 10.6449 9.50631 10.9374C8.74686 11.23 7.91117 11.3065 7.10494 11.1574C6.29871 11.0082 5.55815 10.6401 4.97691 10.0995C4.39567 9.55898 3.99987 8.87026 3.83956 8.1205C3.67925 7.37074 3.76164 6.59362 4.0763 5.8874C4.39096 5.18118 4.92376 4.5776 5.60731 4.15299C6.29087 3.72839 7.09448 3.50182 7.91651 3.50195C8.46223 3.50191 9.00262 3.60184 9.50681 3.79604C10.011 3.99024 10.4691 4.2749 10.855 4.63376C11.2408 4.99263 11.5469 5.41867 11.7557 5.88755C11.9645 6.35643 12.0719 6.85897 12.0718 7.36646Z" fill="url(#paint0_radial_3945_410197)"/>
<path id="Vector_9" d="M8.55262 7.3106C8.55233 7.42661 8.51507 7.53993 8.44553 7.63624C8.376 7.73255 8.27732 7.80753 8.16197 7.85169C8.04662 7.89586 7.91977 7.90723 7.79748 7.88436C7.67518 7.86149 7.56292 7.80542 7.47488 7.72323C7.38685 7.64103 7.327 7.53642 7.3029 7.4226C7.2788 7.30878 7.29153 7.19087 7.33948 7.08377C7.38743 6.97668 7.46845 6.88522 7.5723 6.82094C7.67614 6.75666 7.79815 6.72246 7.9229 6.72266C8.00578 6.72274 8.08783 6.73803 8.16435 6.76764C8.24087 6.79724 8.31037 6.84059 8.36886 6.8952C8.42735 6.94981 8.47368 7.01461 8.50521 7.08589C8.53675 7.15717 8.55286 7.23353 8.55262 7.3106Z" fill="white"/>
<path id="Vector_10" d="M12.1196 7.37595C12.1196 8.14061 11.8758 8.88809 11.4189 9.52388C10.9621 10.1597 10.3128 10.6552 9.55314 10.9478C8.79346 11.2405 7.95753 11.317 7.15107 11.1678C6.3446 11.0187 5.60381 10.6504 5.02238 10.1098C4.44095 9.56906 4.04499 8.88017 3.88457 8.1302C3.72416 7.38024 3.80649 6.60288 4.12116 5.89642C4.43582 5.18997 4.9687 4.58616 5.65239 4.16134C6.33608 3.73651 7.13988 3.50977 7.96215 3.50977C8.50816 3.50959 9.04887 3.60947 9.55336 3.8037C10.0579 3.99793 10.5162 4.28271 10.9023 4.64175C11.2884 5.0008 11.5947 5.42707 11.8035 5.89622C12.0124 6.36536 12.1198 6.86818 12.1196 7.37595Z" fill="url(#paint1_radial_3945_410197)"/>
<path id="Vector_11" d="M25.8822 10.7647C25.8703 9.92101 26.1365 9.09414 26.645 8.3953C27.1535 7.69646 27.8799 7.15918 28.7266 6.85569C29.3099 6.6394 29.9524 6.53125 30.6543 6.53125C31.3477 6.53125 31.9883 6.6394 32.5758 6.85569C33.1403 7.05855 33.6556 7.36406 34.0916 7.75435C34.5146 8.13731 34.8511 8.5949 35.0814 9.10034C35.5538 10.1667 35.5538 11.3634 35.0814 12.4298C34.8512 12.9352 34.5147 13.3927 34.0916 13.7754C33.6558 14.166 33.1404 14.4716 32.5758 14.6744C31.9883 14.8907 31.3477 14.999 30.6543 14.9992C29.9522 14.9992 29.3096 14.891 28.7266 14.6744C27.8814 14.3688 27.1564 13.8309 26.6482 13.1324C26.14 12.4339 25.8728 11.608 25.8822 10.7647ZM28.2276 10.7647C28.2239 11.0687 28.2902 11.3698 28.422 11.648C28.6727 12.1803 29.1393 12.5989 29.7203 12.8128C30.3192 13.0329 30.9857 13.0329 31.5846 12.8128C31.8733 12.706 32.1373 12.5489 32.3627 12.3501C32.5884 12.1509 32.7692 11.9119 32.8945 11.647C33.0228 11.3679 33.0889 11.0674 33.0889 10.7639C33.0889 10.4603 33.0228 10.1599 32.8945 9.8808C32.7689 9.61606 32.5882 9.37708 32.3627 9.17768C32.1373 8.97884 31.8733 8.8218 31.5846 8.71496C30.9857 8.49488 30.3192 8.49488 29.7203 8.71496C29.4325 8.82172 29.17 8.97969 28.9473 9.18002C28.725 9.38074 28.5465 9.61949 28.4216 9.88315C28.2902 10.1608 28.2239 10.4614 28.2272 10.7647H28.2276Z" fill="white"/>
<path id="Vector_12" d="M24.7753 7.45703C24.2604 6.98828 23.5188 6.75391 22.5502 6.75391H18.9814V14.7746H20.0803C20.0803 14.7746 21.2235 14.6771 21.2235 13.8237V12.1161H22.5502C23.5188 12.1161 24.2604 11.8817 24.7753 11.4129C25.2902 10.9442 25.5476 10.2847 25.5476 9.43449C25.5476 8.58426 25.2902 7.92511 24.7753 7.45703ZM21.967 10.4369H21.2235V8.43571H21.9673C22.7904 8.43571 23.202 8.76908 23.2023 9.43582C23.2025 10.1026 22.7909 10.4358 21.9673 10.4356L21.967 10.4369Z" fill="white"/>
<path id="Vector_13" d="M42.7656 6.75586V8.52171H44.6073V14.7755H45.7162C45.7162 14.7755 46.7438 14.6864 46.8493 13.9488V8.52171H48.6913V6.75586H42.7656Z" fill="white"/>
<path id="Vector_14" d="M40.3826 11.4886C41.0004 11.3546 41.4674 11.0979 41.7835 10.7185C42.0997 10.339 42.2579 9.84436 42.2584 9.23454C42.2611 8.9082 42.2011 8.58403 42.0813 8.27729C41.9643 7.97383 41.7772 7.69794 41.5331 7.46908C41.289 7.24021 40.9938 7.06395 40.6685 6.95274C40.3099 6.82126 39.8905 6.75564 39.4105 6.75586H35.9209V14.7745H37.018C37.018 14.7745 38.1615 14.6771 38.1615 13.8236V11.6908L40.3023 14.7745H43.0937L40.3826 11.4886ZM39.6049 10.0843C39.3685 10.2546 39.0292 10.3399 38.587 10.3401H38.1647V8.36133H38.5881C39.0303 8.36133 39.3695 8.44637 39.606 8.61646C39.8424 8.78655 39.9606 9.03131 39.9606 9.35073C39.9597 9.66948 39.8411 9.91401 39.6049 10.0843Z" fill="white"/>
<path id="Vector_15" d="M61.9998 13.8259V13.011H59.3113V6.75586H57.0693V14.7755H60.8567C60.8567 14.7755 61.9998 14.6794 61.9998 13.8259Z" fill="white"/>
<path id="Vector_16" d="M50.2385 14.0453L50.4862 13.3757H53.6806L53.8429 13.815C53.8476 13.831 53.8534 13.8448 53.8584 13.8605L53.9214 14.0316C54.1922 14.6513 54.725 14.7511 54.9209 14.7655H56.5771L53.3029 6.76562H50.8614L47.585 14.7655H49.2412C49.4399 14.7498 49.9652 14.6513 50.2385 14.0453ZM52.0837 9.13047L53.0876 11.7933H51.0792L52.0837 9.13047Z" fill="white"/>
</g>
<defs>
<radialGradient id="paint0_radial_3945_410197" cx="0" cy="0" r="1" gradientUnits="userSpaceOnUse" gradientTransform="translate(7.91579 7.36613) scale(4.15566 3.86451)">
<stop stop-color="white"/>
<stop offset="0.05" stop-color="white" stop-opacity="0.9"/>
<stop offset="0.15" stop-color="white" stop-opacity="0.69"/>
<stop offset="0.26" stop-color="white" stop-opacity="0.51"/>
<stop offset="0.37" stop-color="white" stop-opacity="0.35"/>
<stop offset="0.48" stop-color="white" stop-opacity="0.22"/>
<stop offset="0.6" stop-color="white" stop-opacity="0.12"/>
<stop offset="0.72" stop-color="white" stop-opacity="0.05"/>
<stop offset="0.85" stop-color="white" stop-opacity="0.01"/>
<stop offset="1" stop-color="white" stop-opacity="0"/>
</radialGradient>
<radialGradient id="paint1_radial_3945_410197" cx="0" cy="0" r="1" gradientUnits="userSpaceOnUse" gradientTransform="translate(3023.28 3336.01) scale(960.04 892.779)">
<stop stop-color="white"/>
<stop offset="0.05" stop-color="white" stop-opacity="0.9"/>
<stop offset="0.15" stop-color="white" stop-opacity="0.69"/>
<stop offset="0.26" stop-color="white" stop-opacity="0.51"/>
<stop offset="0.37" stop-color="white" stop-opacity="0.35"/>
<stop offset="0.48" stop-color="white" stop-opacity="0.22"/>
<stop offset="0.6" stop-color="white" stop-opacity="0.12"/>
<stop offset="0.72" stop-color="white" stop-opacity="0.05"/>
<stop offset="0.85" stop-color="white" stop-opacity="0.01"/>
<stop offset="1" stop-color="white" stop-opacity="0"/>
</radialGradient>
<clipPath id="clip0_3945_410197">
<rect width="62" height="15" fill="white"/>
</clipPath>
</defs>
</svg>
